<?xml version="1.0" encoding="utf-8"?>
<!-- Generator: Adobe Illustrator 25.2.3, SVG Export Plug-In . SVG Version: 6.00 Build 0)  -->
<svg version="1.1" id="Layer_1" xmlns="http://www.w3.org/2000/svg" xmlns:xlink="http://www.w3.org/1999/xlink" x="0px" y="0px"
	 viewBox="0 0 2000 2000" style="enable-background:new 0 0 2000 2000;" xml:space="preserve">
<style type="text/css">
	.st0{fill:#FFFFFF;}
	.st1{fill:#CCCCCC;}
</style>
<g>
	<path class="st0" d="M0,0c666.7,0,1333.3,0,2000,0c0,666.7,0,1333.3,0,2000c-666.7,0-1333.3,0-2000,0C0,1333.3,0,666.7,0,0z
		 M984.7,1949.7c512.3,9.2,948.2-398.9,959.7-929.2c11.3-521.5-398.5-959.7-928-969.5C501.7,41.4,60.9,451.9,56.1,994.7
		C51.5,1505.5,457,1939.9,984.7,1949.7z"/>
	<path class="st1" d="M984.7,1949.7c-527.8-9.8-933.3-444.2-928.7-955c4.9-542.8,445.6-953.3,960.4-943.8
		c529.5,9.8,939.3,448,928,969.5C1932.9,1550.8,1497,1958.9,984.7,1949.7z M905.6,682.3c0.9,6.2,1.2,11.2,2.4,16.1
		c5.4,22.7,19.8,40,33.8,57.7c4.6,5.9,8.5,14.3,8.5,21.6c0.5,193.4,0.2,386.7,0.6,580.1c0,11.4-3.9,17-13.6,21.9
		c-38.6,19.4-65.1,50.2-79.6,90.9c-4.7,13.3-7.4,27.3-11.3,42.4c-32.2,0-64.6,0.7-97-0.2c-26.1-0.7-42.1,12.1-52.3,34.7
		c-10.1,22.5-4.7,45.9-5.6,70.9c7.8,0,14.1,0,20.4,0c190.5,0,380.9,0,571.4,0c7.3,0,14.7-0.3,22,0.1c7.5,0.4,10.8-2.2,10.6-10.2
		c-0.4-14.7,0.5-29.5-0.2-44.2c-1.5-32.3-24.7-53.9-57.3-54c-27.5,0-54.9,0-82.4-0.1c-4.9,0-9.8-0.4-15-0.7
		c-7.8-64.8-43.8-107.6-98.6-136.7c-3.7-2-6.6-9.2-6.6-14c-0.3-194.7-0.3-389.5-0.4-584.2c0-7.6,1.6-12.1,9-16.1
		c24.5-13.3,39.3-47.3,33.7-75.9C1034.7,682.3,971.2,682.3,905.6,682.3z M335.2,1095.6c23.3,109.9,147.8,191.2,278.3,183.7
		c99.7-5.7,225.3-104.2,232.6-183.7c-12.3,0-24.7-1.2-36.8,0.3c-15.1,1.9-21.1-4.8-26.2-18.4c-54-144.7-108.7-289.1-163.2-433.6
		c-6.1-16.2-18-26.9-30.2-26.3c-16.6,0.8-24.8,12-30.1,26.2c-6.4,17.2-12.9,34.4-19.3,51.7c-47.7,128.4-95.5,256.8-142.8,385.3
		c-4.2,11.3-9.5,16-21.7,15C362.8,1094.8,349.6,1095.6,335.2,1095.6z M1670.6,1098.2c-13.8,0-27.4-0.9-40.8,0.3
		c-11.5,1-16.7-3.3-20.7-14.1c-39.5-105.9-79.5-211.6-119.4-317.3c-15.4-40.9-30.5-81.8-46.4-122.5c-5-12.8-13.3-23.4-28.8-23.9
		c-13.2-0.4-23.6,8.1-29.9,24.1c-2.2,5.6-4.1,11.2-6.2,16.8c-52.3,140.8-104.8,281.6-156.9,422.5c-3.9,10.4-8.3,15.7-20.4,14.5
		c-13.7-1.4-27.6-0.3-42.3-0.3c34.9,98.9,127.4,196.4,280.7,183.9C1539.8,1273.9,1657.7,1182.1,1670.6,1098.2z M931.8,457
		c-38.9-31.4-84.5-39.2-133-33.8c-53.1,6-101.9,25.4-147.9,52c-10.8,6.3-20.1,10.8-32.5,3.5c-6.4-3.8-14.8-4.8-22.5-5.5
		c-20.8-1.9-37.6,5.7-49.5,23.3c-10.4,15.4-14.7,31.6-5.5,49.2c20.2,38.9,68.9,41.9,93.5,6c3.5-5.2,7.2-11.2,12.3-14.3
		c45.3-27.4,92.5-50.6,144.9-60.6c35.9-6.8,71-5.7,102.7,16.3c11.7,8.1,18.6,18,18,33.2c-1.3,33.3,14.7,57.1,42.3,73.6
		c11,6.6,22.2,13.8,34.3,17c11.7,3.1,26.5,5.4,36.9,1c38.4-16.4,68.7-42.4,70.5-87.9c1.1-27.3,15.3-40.5,37.8-48.9
		c6.8-2.5,14-4.4,21.1-5.7c29.1-5.6,57.6-1.1,85.2,7.7c55.5,17.7,107.9,40.7,150.6,83.3c23.4,23.4,64,8.8,74.5-23.3
		c7.7-23.6,2.4-45.3-15.6-59.9c-18.9-15.4-39.4-13.4-59-2.2c-8.9,5.1-14.8,3.8-23.4-0.4c-32.4-15.9-64.4-33.6-98.4-44.9
		c-67.6-22.5-134.2-23.6-193.1,25.6c-12.4-8.2-24.8-16.4-38-25.2c32.3-23.9,32.2-55.3,18.3-86.8c-10.7-24.1-26.8-45.7-40.8-68.2
		c-2.7-4.4-6.9-7.9-13.5-15.3c-17.7,28-36.2,52.3-49.1,79.2c-15.5,32.4-17.3,64.1,15.5,89C956.9,441.3,945.1,448.7,931.8,457z"/>
	<path class="st0" d="M905.6,682.3c65.6,0,129,0,192.3,0c5.6,28.7-9.2,62.6-33.7,75.9c-7.4,4-9,8.5-9,16.1
		c0.2,194.7,0.1,389.5,0.4,584.2c0,4.8,2.9,12,6.6,14c54.9,29.1,90.8,71.9,98.6,136.7c5.2,0.2,10.1,0.7,15,0.7
		c27.5,0.1,54.9,0,82.4,0.1c32.5,0,55.8,21.7,57.3,54c0.7,14.7-0.2,29.5,0.2,44.2c0.2,8-3.1,10.6-10.6,10.2
		c-7.3-0.4-14.6-0.1-22-0.1c-190.5,0-380.9,0-571.4,0c-6.3,0-12.6,0-20.4,0c0.9-25-4.5-48.4,5.6-70.9c10.1-22.6,26.1-35.4,52.3-34.7
		c32.4,0.9,64.8,0.2,97,0.2c4-15,6.6-29.1,11.3-42.4c14.5-40.8,41-71.5,79.6-90.9c9.8-4.9,13.7-10.4,13.6-21.9
		c-0.4-193.4-0.2-386.7-0.6-580.1c0-7.3-3.8-15.7-8.5-21.6c-14-17.7-28.4-35-33.8-57.7C906.9,693.6,906.5,688.5,905.6,682.3z"/>
	<path class="st0" d="M335.2,1095.6c14.4,0,27.7-0.9,40.8,0.3c12.1,1,17.5-3.6,21.7-15c47.3-128.6,95.1-256.9,142.8-385.3
		c6.4-17.2,12.9-34.4,19.3-51.7c5.3-14.2,13.5-25.4,30.1-26.2c12.2-0.6,24.1,10,30.2,26.3c54.5,144.5,109.2,288.9,163.2,433.6
		c5.1,13.6,11,20.2,26.2,18.4c12.1-1.5,24.5-0.3,36.8-0.3c-7.3,79.5-132.9,178-232.6,183.7C483,1286.8,358.4,1205.5,335.2,1095.6z
		 M447.6,1094.7c95.5,0,189,0,284.3,0c-47.4-124.9-94.3-248.3-142.2-374.3C541.9,846.4,495.1,969.5,447.6,1094.7z"/>
	<path class="st0" d="M1670.6,1098.2c-12.9,83.9-130.8,175.7-231.1,183.9c-153.4,12.6-245.9-85-280.7-183.9
		c14.7,0,28.7-1.1,42.3,0.3c12.1,1.2,16.5-4,20.4-14.5c52.1-140.9,104.5-281.7,156.9-422.5c2.1-5.6,4-11.2,6.2-16.8
		c6.3-15.9,16.7-24.5,29.9-24.1c15.5,0.5,23.8,11.1,28.8,23.9c15.9,40.7,31,81.6,46.4,122.5c39.9,105.7,79.9,211.4,119.4,317.3
		c4,10.8,9.2,15.1,20.7,14.1C1643.2,1097.4,1656.8,1098.2,1670.6,1098.2z M1271.9,1097.3c95.4,0,188.8,0,284.3,0
		c-47.4-124.9-94.3-248.3-142.1-374.3C1366.1,849.4,1319.3,972.6,1271.9,1097.3z"/>
	<path class="st0" d="M931.8,457c13.3-8.3,25.1-15.7,36.5-22.9c-32.9-25-31.1-56.6-15.5-89c12.9-27,31.5-51.2,49.1-79.2
		c6.6,7.4,10.8,10.9,13.5,15.3c14,22.5,30.1,44.2,40.8,68.2c14,31.5,14,63-18.3,86.8c13.2,8.7,25.6,17,38,25.2
		c58.9-49.2,125.5-48.1,193.1-25.6c34,11.3,66,29,98.4,44.9c8.6,4.2,14.5,5.5,23.4,0.4c19.6-11.1,40.1-13.1,59,2.2
		c18,14.6,23.3,36.3,15.6,59.9c-10.5,32.1-51.1,46.8-74.5,23.3c-42.7-42.7-95.1-65.6-150.6-83.3c-27.6-8.8-56.1-13.3-85.2-7.7
		c-7.2,1.4-14.3,3.2-21.1,5.7c-22.5,8.4-36.7,21.6-37.8,48.9c-1.8,45.5-32.1,71.5-70.5,87.9c-10.4,4.4-25.1,2.1-36.9-1
		c-12.1-3.2-23.3-10.4-34.3-17c-27.5-16.5-43.6-40.4-42.3-73.6c0.6-15.2-6.4-25.1-18-33.2c-31.7-22.1-66.8-23.2-102.7-16.3
		c-52.4,10-99.6,33.2-144.9,60.6c-5.1,3.1-8.7,9.1-12.3,14.3c-24.6,35.9-73.3,32.9-93.5-6c-9.2-17.7-4.9-33.8,5.5-49.2
		c11.9-17.6,28.7-25.2,49.5-23.3c7.7,0.7,16.1,1.7,22.5,5.5c12.4,7.3,21.7,2.8,32.5-3.5c46-26.6,94.8-46.1,147.9-52
		C847.3,417.8,893,425.7,931.8,457z"/>
	<path class="st1" d="M447.6,1094.7c47.5-125.2,94.3-248.3,142.1-374.3c47.9,126,94.8,249.4,142.2,374.3
		C636.5,1094.7,543.1,1094.7,447.6,1094.7z"/>
	<path class="st1" d="M1271.9,1097.3c47.4-124.8,94.2-248,142.1-374.3c47.8,126,94.7,249.3,142.1,374.3
		C1460.7,1097.3,1367.3,1097.3,1271.9,1097.3z"/>
</g>
</svg>
