<?xml version="1.0" encoding="utf-8"?>
<!-- Generator: Adobe Illustrator 25.2.3, SVG Export Plug-In . SVG Version: 6.00 Build 0)  -->
<svg version="1.1" id="Layer_1" xmlns="http://www.w3.org/2000/svg" xmlns:xlink="http://www.w3.org/1999/xlink" x="0px" y="0px"
	 viewBox="0 0 24 22" style="enable-background:new 0 0 24 22;" xml:space="preserve">
<style type="text/css">
	.st0{fill:#858585;}
	.st1{fill:#C8C8C8;}
	.st2{fill:#CFCFCF;}
	.st3{fill:#909090;}
	.st4{fill:#EBEBEB;}
</style>
<g>
	<path class="st0" d="M20.5,19.9c0.1,1.2-0.5,1.8-1.7,1.8c-4.4,0-8.7,0.1-13.1,0c-2.2,0-3.7-1.6-3.8-3.8c-0.1-4.4-0.1-8.7,0-13.1
		c0-2.3,1.5-4.1,3.8-4.2c4.3-0.2,8.6-0.1,12.9-0.1c1,0,1.9,0.5,1.9,1.5c0,4.8,0.6,9.6-0.3,14.3c-4.4,0-8.7,0-13.1,0.1
		c-1,0-2.1,0.1-2.2,1.4C4.7,19.1,6,19,6.9,19c3.3,0,6.7,0,10,0C18.2,19,19.4,19.2,20.5,19.9z M16,7.4c0.6-0.2,1.2-0.4,1.1-1.2
		c-0.1-0.7-0.7-1-1.3-1c-2.9,0-5.8-0.5-8.6,0.3C6.5,6.4,7,6.9,7.6,7.4C7.5,7.7,7.3,8,7.2,8.3c-0.1,1.2,0.6,1.7,1.7,1.7
		c1.9,0,3.8,0,5.7,0c1.1,0,1.8-0.5,1.9-1.7C16.3,8.1,16.2,7.7,16,7.4L16,7.4z"/>
	<path class="st1" d="M20.5,19.9c-1.1-0.7-2.3-0.9-3.6-0.9c-3.3,0-6.7,0-10,0c-0.9,0-2.2,0.2-2.1-1.3C4.9,16.5,6,16.4,7,16.4
		c4.4,0,8.7,0,13.1-0.1C17.8,17.8,20,18.7,20.5,19.9z"/>
	<path class="st2" d="M7.6,7.4C7,6.9,6.5,6.4,7.2,5.6c2.4,0,4.9,0,7.3,0c1.2,0,2.2,0.2,1.5,1.8c0,0,0,0,0,0
		C13.2,7.4,10.4,7.4,7.6,7.4z M15,6.4c0-0.1-0.1-0.1-0.1-0.2c-2.1,0-4.2,0-6.2,0c0,0.1,0,0.1,0,0.2C10.8,6.4,12.9,6.4,15,6.4z"/>
	<path class="st2" d="M16.5,8.4c0,1.2-0.7,1.7-1.9,1.7c-1.9,0-3.8,0-5.7,0c-1.2,0-1.8-0.5-1.7-1.7C10.3,8.4,13.4,8.4,16.5,8.4z
		 M15,9.1C15,9,15,9,15,8.9c-2.1,0-4.2,0-6.3,0c0,0.1,0,0.1,0,0.2C10.8,9.1,12.9,9.1,15,9.1z"/>
	<path class="st3" d="M16.5,8.4c-3.1,0-6.2,0-9.3,0C7.3,8,7.5,7.7,7.6,7.4c2.8,0,5.6,0,8.4,0C16.2,7.7,16.3,8.1,16.5,8.4z"/>
	<path class="st3" d="M16,7.4c0.7-1.6-0.3-1.8-1.5-1.8c-2.4,0-4.9,0-7.3,0c2.8-0.8,5.7-0.3,8.6-0.3c0.6,0,1.2,0.2,1.3,1
		C17.2,7,16.7,7.2,16,7.4z"/>
	<path class="st4" d="M15,6.4c-2.1,0-4.2,0-6.3,0c0-0.1,0-0.1,0-0.2c2.1,0,4.2,0,6.2,0C14.9,6.3,15,6.4,15,6.4z"/>
	<path class="st4" d="M15,9.1c-2.1,0-4.2,0-6.3,0c0-0.1,0-0.1,0-0.2c2.1,0,4.2,0,6.3,0C15,9,15,9,15,9.1z"/>
</g>
</svg>
