<?xml version="1.0" encoding="utf-8"?>
<!-- Generator: Adobe Illustrator 25.2.3, SVG Export Plug-In . SVG Version: 6.00 Build 0)  -->
<svg version="1.1" id="Layer_1" xmlns="http://www.w3.org/2000/svg" xmlns:xlink="http://www.w3.org/1999/xlink" x="0px" y="0px"
	 viewBox="0 0 24 22" style="enable-background:new 0 0 24 22;" xml:space="preserve">
<style type="text/css">
	.st0{fill:#C9C9C9;}
	.st1{fill:#898989;}
	.st2{fill:#CACACA;}
	.st3{fill:#969696;}
	.st4{fill:#ECECEC;}
	.st5{fill:#959595;}
	.st6{fill:#C6C6C6;}
	.st7{fill:#EFEFEF;}
</style>
<g>
	<path class="st0" d="M15.9,16.6c0,0.3,0,0.6,0,1c-0.3,2.5-1.9,3.1-4.2,2.9c-3.3-0.2-6.5,0-9.8,0c-0.4-0.9-0.5-1.8-0.5-2.8
		c0-4.5,0-8.9,0-13.4c0-0.8,0.4-1.6-0.5-2.2C2.4,1.3,4,1.6,5.6,1.6c2-0.1,3.9,0,3.7,3c0.4-1.5,0.2-2.8,0.8-3.9
		c3,0.3,5.8,3.3,5.8,6.2c0,1.1-0.3,2.3,1,3c-1.8,2.3-4.7,3.6-5.3,6.8c-1.4-1.4-3.6-1.3-4.9-3c-0.5-0.6-1.2-0.2-1.5,0.5
		c-0.4,0.6-0.7,1.3-1,1.9c-0.3,0.3-0.6,0.6-0.9,1c0.1,0.8,0.5,1.5,1.4,1.2c1.9-0.6,4,0.2,5.9-0.7c0.3-0.2,0.7-0.4,1-0.5
		C13.1,17.7,14.6,17.7,15.9,16.6z M13.7,6.1c0.4-0.1,1.1,0.3,1.4-0.4c0.2-0.6-0.3-1-0.7-1.4c-0.4-0.5-0.9-0.9-1.4-1.4
		c-0.6-0.5-1-1.5-1.9-1.2c-0.8,0.2-0.6,1.1-0.6,1.7c0,1,0,2,1.1,2.4C12.3,5.9,13,6,13.7,6.1z"/>
	<path class="st1" d="M15.9,16.6c-1.3,1.1-2.8,1.1-4.3,0.4c0-0.1,0-0.2,0-0.4c0.5-3.2,3.5-4.6,5.3-6.8c0.8-1,1.7-1.4,2.9-1
		c0.1,0.1,0.3,0.3,0.4,0.4c1,1.6,0.4,2.8-0.9,3.9C18.1,14.2,17,15.5,15.9,16.6z"/>
	<path class="st2" d="M1.8,20.5c3.3,0,6.6-0.1,9.8,0c2.3,0.1,3.9-0.4,4.2-2.9c0,3.7-0.1,3.8-3.8,3.9c-3.1,0-6.1,0-9.2,0
		c-1.7,0-2.5-0.8-2.5-2.5c0-5.3,0-10.5,0-15.8c0-1.9,0.9-2.6,2.7-2.6c2.3,0,4.7,0,7,0C9.5,1.8,9.6,3.1,9.3,4.6c0.2-3-1.7-3.1-3.7-3
		C4,1.6,2.4,1.3,0.9,2c0,5.2,0,10.4,0,15.6C0.9,18.7,0.7,19.8,1.8,20.5z"/>
	<path class="st3" d="M20.2,9.3c-0.1-0.1-0.3-0.3-0.4-0.4c0.1-0.9-0.6-2,0.7-2.5c0.7-0.3,1.4-0.2,2,0.4c0.6,0.5,1.4,1.1,0.9,2
		C22.6,10.3,21.3,9.1,20.2,9.3z"/>
	<path class="st4" d="M11.6,16.7c0,0.1,0,0.2,0,0.4c-0.3,0.2-0.7,0.4-1,0.5c-1.6-1-3.6-0.1-5.3-1c-0.3-0.2-0.7-0.3-1-0.5
		c0.3-0.6,0.6-1.3,1-1.9c0.4-0.6,1-1.1,1.5-0.5C8,15.3,10.2,15.3,11.6,16.7z"/>
	<path class="st5" d="M13.7,6.1c-0.7-0.1-1.4-0.1-2-0.3c-1.1-0.4-1.1-1.4-1.1-2.4c0-0.6-0.2-1.5,0.6-1.7c0.9-0.3,1.3,0.7,1.9,1.2
		c0.5,0.4,0.9,0.9,1.4,1.4c0.4,0.4,0.9,0.8,0.7,1.4C14.8,6.4,14.1,5.9,13.7,6.1z"/>
	<path class="st6" d="M1.8,20.5c-1.1-0.7-1-1.8-1-2.8c0-5.2,0-10.4,0-15.6c0.8,0.6,0.5,1.4,0.5,2.2c0,4.5,0,8.9,0,13.4
		C1.3,18.6,1.4,19.6,1.8,20.5z"/>
	<path class="st2" d="M5.2,16.6c1.7,0.9,3.7-0.1,5.3,1c-1.9,0.9-3.9,0.1-5.9,0.7c-0.9,0.3-1.3-0.4-1.4-1.2C4,17.4,4.7,17.2,5.2,16.6
		z"/>
	<path class="st7" d="M5.2,16.6c-0.6,0.5-1.2,0.7-1.9,0.4c0.3-0.3,0.6-0.6,0.9-1C4.6,16.3,4.9,16.4,5.2,16.6z"/>
</g>
</svg>
