<?xml version="1.0" encoding="utf-8"?>
<!-- Generator: Adobe Illustrator 25.2.3, SVG Export Plug-In . SVG Version: 6.00 Build 0)  -->
<svg version="1.1" id="Capa_1" xmlns="http://www.w3.org/2000/svg" xmlns:xlink="http://www.w3.org/1999/xlink" x="0px" y="0px"
	 viewBox="0 0 512 512" style="enable-background:new 0 0 512 512;" xml:space="preserve">
<style type="text/css">
	.st0{fill:#232C47;}
</style>
<g>
	<g>
		<g>
			<path class="st0" d="M116,256c0-37.4,14.6-72.6,41-99.1c7.8-7.8,7.8-20.5,0-28.3c-7.8-7.8-20.5-7.8-28.3,0
				C94.7,162.7,76,207.9,76,256s18.7,93.3,52.7,127.4c7.8,7.8,20.5,7.8,28.3,0c7.8-7.8,7.8-20.5,0-28.3
				C130.6,328.6,116,293.4,116,256z"/>
			<path class="st0" d="M40,256c0-57.7,22.5-112,63.3-152.8c7.8-7.8,7.8-20.5,0-28.3C95.5,67,82.8,67,75,74.9
				C26.6,123.2,0,187.6,0,256s26.6,132.8,75,181.1c7.8,7.8,20.5,7.8,28.3,0s7.8-20.5,0-28.3C62.5,368,40,313.7,40,256z"/>
			<path class="st0" d="M256,151.9c-57.3,0-104,46.7-104,104.1s46.7,104.1,104,104.1S360,313.4,360,256S313.3,151.9,256,151.9z
				 M256,320c-35.3,0-64-28.7-64-64s28.7-64,64-64s64,28.7,64,64S291.3,320,256,320z"/>
			<path class="st0" d="M437,74.9c-7.8-7.8-20.5-7.8-28.3,0s-7.8,20.5,0,28.3C449.5,144,472,198.3,472,256s-22.5,112-63.3,152.8
				c-7.8,7.8-7.8,20.5,0,28.3c7.8,7.8,20.5,7.8,28.3,0c48.4-48.4,75-112.7,75-181.1S485.4,123.2,437,74.9z"/>
			<path class="st0" d="M383.3,128.6c-7.8-7.8-20.5-7.8-28.3,0c-7.8,7.8-7.8,20.5,0,28.3c26.4,26.5,41,61.6,41,99.1
				s-14.6,72.6-41,99.1c-7.8,7.8-7.8,20.5,0,28.3c7.8,7.8,20.5,7.8,28.3,0c34-34,52.7-79.3,52.7-127.4S417.3,162.7,383.3,128.6z"/>
		</g>
	</g>
</g>
<path class="st0" d="M948,204"/>
</svg>
