<svg id="Layer_1" data-name="Layer 1" xmlns="http://www.w3.org/2000/svg" viewBox="0 0 2000 2000"><defs><style>.cls-1{fill:#fbf7ed;}.cls-2{fill:#3c2a33;}.cls-3{fill:#f3eed5;}.cls-4{fill:#f6b21d;}.cls-5{fill:#0b0505;}.cls-6{fill:#22a8e7;}.cls-7{fill:#f1f1f1;}</style></defs><path class="cls-1" d="M999.8,507.66c15.08-14.26,30-.64,45,.36,3.72.25,3.93,3.27,1.83,6.37-2.63,3.88-2.31,6.91,3.08,7.77a83,83,0,0,1-1,8.38c-7.65,33.7-13.52,67.68-15.75,102.21-.41,5.25-.89,10.49-1.21,15.74-2,32.74-2.21,65.33,8.47,97,2.91,11.33,8.16,21.34,16.59,29.58,1.67,9.17,11.4,2.07,15,7.43-.72,5.17,3,6.32,6.71,8.15,11.7,5.79,23.36,11.67,36.56,13.1,23,2.49,45.46.83,69.62-8.25-9.14-1.13-15.56-2.13-22-2.67-6.86-.56-13.85,0-20.61-1.13-11.15-1.78-22.15-4.45-33.22-6.75,21.43-2.66,42.28,3.56,63.5,4.14l19.78,3.21c-.82,2.6-1.21,4.66,2.75,4.86,13.8.7,27.59,1.64,41.38,2.49-5.17,26.82-1.64,53.44,1.79,80.07,2.09,16.16-1,32.6,2.57,48.73.27,1.2-2.27,3-3.51,4.55l-15.38-4.58c-2.16-1.06-4.27-2.25-6.5-3.16-22.24-9.08-21.78-9-16.66-32.83,4-18.9,13.78-35.94,17-55,2.26-13.33-2.45-20.16-15.72-22.36-9.12-1.51-17.73,1.42-26.47,3.18,1.09-6.23,8.42-3.71,11.1-7.83-56.6-5.57-107.5,55.4-115.71,100.69,5.28-4.06,7.65-9.6,10.63-14.84,7.4-13,16.37-24.7,29.61-32.43-1.23,2.93-1.81,6.4-3.77,8.68-21.63,25-24.12,52.54-11,82.19-14.44,2.55-28.86,5.22-43.33,7.61-30.07,5-60.09,10.55-89.95,16.37-39.13,7.62-78.47,14.31-117.43,22.78-17.86,3.88-36.48,4.46-53.57,11.84-8.21-4.15-17.56-7-24.37-12.76-9.1-7.76-20.9-12.57-28-22-7.92-10.55-13-23.22-19.57-34.8-12.78-22.41-21.54-46.6-31.67-70.2-2.61-6.08-5.19-13.49-14.17-6.73,6.66-11.71,12.6-23.91,20.14-35,12.51-18.41,17.09-40.35,27.82-59.57,3.86-6.9,7-14.58,10.54-21.84l4.7,3.23c11.24,9.63,22.74,18.83,37.06,23.64l3.67,1.81,1-.26-.13-1c10.16,5.75,21.46,2.1,32.1,3.93L902.5,787c-6.44,6-15.08.15-22.92,4.38h89c-15.29-6.59-28.46-3-41.21-4.23-4.39-.41-10.19,2.72-12.6-4.07l18-6.17c-11.86-5.41-23.06-5.74-33.62-8.65-4.46,1-8.18-10.09-13.15-.8-2.25-6.91-8.46-9.45-14.24-9.27-8.13.26-15-3.1-21.59-6.05-12.23-5.48-24.18-11-37.73-12.27-.92-.08-1.68-1.94-2.81-3.34,4.94-1.44,8.68-.62,12.72.71,22.79,7.52,45.68,14.79,68.58,22,11.37,3.59,23.88,4.72,34.41,8.88,9.08,3.59,15.66,6.92,23.81.86,20.55-15.28,38.25-32.92,46.56-58.06,7.73-15.35,12.26-31.49,12.16-48.8,4.37-13.29,4.93-27.1,4.86-40.87C1012.5,583,1007,545.2,999.8,507.66Zm23.4,313.28c-.34-6-.27-12.1-2.59-17.82,5.39-10.48,11.49-20.57,15-32,1.38-4.55.82-8.14-2-11.22-4-4.37-33,.51-36.23,5.75-1.74,2.83.54,4.63,1.65,6.51,6,10.15,11.54,20.64,19.49,29.53l-.33,22.32c.19,5.83-6.24,7.45-7.76,12.19-8.61,9.39-15.35,19.89-19.35,32.21,7.59-8.87,16.12-16.65,24.24-24.81,21-18.46,44.68-30.33,73.53-30.11-15.9-6.41-31.53-8.6-47.48-.2C1035.56,816.32,1030.65,821.75,1023.2,820.94Zm-81.52-19c-23.56,2-46.46,7.75-69.59,12.2-36.39,7-72.85,13.61-109.27,20.38a28.13,28.13,0,0,0,13.5,1.41c40.83-7.17,81.76-13.83,122.33-22.3,14.43-3,30-3.1,43.08-11.63l4.73-.64-.75-1.5ZM805.61,787.63c21.34,5.53,42.17,6,63.1,3.44-18.6-2-37.22-3.11-55.85-4.1A49.59,49.59,0,0,0,805.61,787.63Zm147.47-7.17c3.44,3.88,6.73,5.22,11.11,3.32C961.69,780.39,958.45,779.68,953.08,780.46ZM945,775.81c-1.85.22-2.61,1.07-2.1,2.43a2.79,2.79,0,0,0,1.9,1.22c1.16.23,2.59-.07,2.28-1.55C946.87,777,945.56,776.38,945,775.81Z"/><path class="cls-2" d="M1351.92,1485.17c25.63,5.35,51.33,10.41,76.87,16.17,19,4.27,38.39,8.39,55.41,17.87,18.34,10.21,38.92,17.06,52.86,34.67,21,26.57,10.65,45.47-15,60-14.87,8.44-32.42,7.29-48.89,9.7-26.63-5.64-54.43-5-79.91-17.36-52-25.29-107.89-37.53-164.66-46.71-80.14-13-160.21-9-240.35-.8-74.82,7.64-149.39,17.89-224.48,22.59-37.94,2.37-76.07,4.43-113.58-4.67-29.18-7.07-40-23.62-38.47-53.54,1.66-32.3,40.73-64.93,65.9-75.44,16.46-6.88,33.15-13.16,49.74-19.71,4.91-.26,9.29.22,13.6,3.59,6.65,5.22,16.31,7.09,23.25,7.66,14.56,1.18,28.08,7.37,43.08,6.63,8.79-.42,18.59.56,27.34,4.31-2,1.33-3.89,3.58-6,3.85-22.52,2.82-42.25,13.52-62.69,22.07a150.5,150.5,0,0,0-31.75,18.06c-5,3.69-6.31,7.93-5.77,13.51.61,6.41,5.73,5.2,9.89,6.51,15.77,5,31.67.09,46.71-1.55q58.34-6.39,116.71-13.35c61.29-7.19,122.58-14.12,184.39-16.54,37.21-1.45,74.42-4.4,111.67-5.61C1249.38,1475.43,1300.64,1480.52,1351.92,1485.17Z"/><path class="cls-3" d="M834.65,1450.15c-8.75-3.75-18.55-4.73-27.34-4.31-15,.74-28.52-5.45-43.08-6.63-6.94-.57-16.6-2.44-23.25-7.66-4.31-3.37-8.69-3.85-13.59-3.6-17-9-34.29-17.62-52.53-24a.76.76,0,0,0-1-.68c0-1.44-.09-2.83-2.11-2.7l.29.56.57-.28a40,40,0,0,0-5.67-17.92,1.07,1.07,0,0,0-.45-1.66c-2.4-6.2-5-12.31-9.41-17.43l.21.28c-.4-1.39-.39-3.16-2.62-2.9l.48.43.42-.49-3.82-6.64c-9.9-19.58-26.35-34.27-39.13-51.72-12.23-16.68-27.63-31-41.63-46.43.57-5.56-1.88-8.09-7.49-7.48l.09.09c-.36-3.61.6-8.65-6-5.53a1.06,1.06,0,0,1-.92-.86c4.56-6.27.38-11-2.82-15.89.81-14.32-4-27.48-8.54-40.65-1.95-5.68-.53-11.37-1.32-17-3.5-24.9,6.49-48.87,5-73.62-.22-3.74,2.36-5.86,4.51-8.31a39.66,39.66,0,0,0,10-22.82c.73-8,4.3-12,12.36-11.89-7.33,23.38-10.39,47.36-12.85,71.73-3.37,33.36-1.13,65.65,10.06,97.13,11,31.07,30.31,56.73,56.18,76.68a195.08,195.08,0,0,0,69.05,34.23c11.22,3,22.31,7.57,34.26,7.37,3.49-.06,8.78.44,5.95-5.64-5.63-12.06-1.95-25.61-7.15-38.12-2.22-5.36-5.56-11.32-5.85-18-1.24-28.84-12.56-55.78-16.14-84.37-2.24-17.86-7.72-35.57-10.67-53.53-4.4-26.71-13.3-49.24-37.93-65.34-25-16.33-48.43-35.53-67.69-59-.6-14.57,5.52-25.8,17.08-34.32l2.52,2.45c.6.79,1.21,1.57,1.82,2.36,6.55,16.75,18.57,29.91,29.59,43.54,14.67,18.14,32.07,33.38,53.5,43.4-.2,4.85-1.34,9.9-.42,14.54,5.23,26.33,11,52.56,16.5,78.84q8.35,40.07,16.53,80.16c4.82,23.57,9.8,47.12,14.12,70.78,1.42,7.75,5.08,7.63,11.15,6.08,11.06-2.83,22.21-5.34,33.43-7.41,65.38-12,130.84-23.7,196.18-35.94,66.93-12.52,133.74-25.72,200.68-38.18,7.8-1.45,9.54-5.2,8.43-11.71-4.66-27.33-9.48-54.64-14.22-82q-10.85-62.62-21.67-125.27c22.87,13.37,47.74,21.91,72.7,30.22,3.61,6,8.25,8.65,14.94,4.54l14.85,2.63c12.55,5.38,9.58,16.5,9.78,26.45-27,.11-51.18-11.16-76.22-18.91-7.18-2.22-16.11-12.5-19.78-8.06-5.69,6.88-2.42,18.61-1.21,28.29.15,1.17,1.06,2.22,1.38,3.4,3.7,13.42,2.34,28.22,11,40.32a2.68,2.68,0,0,1,.1,2.33c-7,13.9,1,27.59,3,40.38,3.09,19.27,4,39.59,12.64,58,2.36,5-1.6,11.26-5.93,12-11.84,2-23.57,8.14-34.48,8.19-20.46.08-39.4,6.5-58.83,9.95-8.75,1.56-18.23,1.58-27,4.74-9.28,3.35-18.82,7.4-28.45,8.07-32.43,2.23-62.72,14.16-94.37,19.41-34.2,5.68-67.17,16.65-101.23,22.45-34.57,5.89-68.32,14.63-102,24.7,10.32,4.15,21.41,3.74,31.77,4.42,43.08,2.82,86.28,4.33,129.45,5.24,25.25.52,50.54-.68,75.81-1.57,37.07-1.31,74-3.18,110.71-8.25,27.31-3.78,54.7-8.67,80.46-18.69s50.93-20.67,71.47-40.73c17.59-17.19,29.39-36.48,37.17-59.8,4-11.83,1.28-24.16,6.6-35.23,7.42,1.81,7.27,7.85,7.32,13.53.16,16.93.13,33.86.18,50.79-14.09,15.27-28.87,30-42.09,46-16.92,20.46-34.3,40.73-48,63.56-11.28,18.8-22.32,38.16-15.52,61.73-2.82.25-5.78,0-8.45.82-68.91,20.1-139.64,27.77-211,30.87C928.19,1456.67,881.4,1453.94,834.65,1450.15Z"/><path class="cls-2" d="M995.67,711c-8.31,25.14-26,42.78-46.56,58.06-8.15,6.06-14.73,2.73-23.81-.86-10.53-4.16-23-5.29-34.41-8.88-22.9-7.21-45.79-14.48-68.58-22-4-1.33-7.78-2.15-12.72-.71,1.13,1.4,1.89,3.26,2.81,3.34,13.55,1.24,25.5,6.79,37.73,12.27,6.57,3,13.46,6.31,21.59,6.05,5.78-.18,12,2.36,14.24,9.27-8.13,7.54-18.09,1.17-27,4.46,13.35-2.82,27.25,4.25,40.12-3.66,10.56,2.91,21.76,3.24,33.62,8.65l-18,6.17h-2.6c-1.64-.69-2.14.46-2.62,1.64l-7,2.29L809,781.71c-.88-4.41-4.29-4.24-7.61-4.2l-24.49.27.13,1-1,.25c.28-3.68-.79-4.58-3.67-1.8-14.32-4.81-25.82-14-37.06-23.64-2.38-7.21,5.57-13,2.85-20.22,13.65-33.06,27-66.25,41.05-99.14,7.12-16.66,12.12-34.51,24.23-48.67,7.09-8.29,2.53-17.85,3.72-26.77.24-.22.72-.52.67-.66a8.27,8.27,0,0,0-.74-1.49l-.07-5.19c2.32-2.21,2-5.12,2.09-7.93.62-21.76-1.08-43.55,2-65.32,1-7.12,2.92-15.23-1.82-22.29.11-1.68.21-3.37.31-5.06,4.92-5.94,8-35.69,4.85-46.4.81-11.65,1.69-23.26,4.17-34.75,1.33-6.19,3.66-5.38,7-2.17a24.34,24.34,0,0,1,4.29,5.72c22.47,40.08,46.09,79.53,66.11,121,4.81,10,10,16.27,24.44,12,22.58-6.78,46.45-8,70.21-4.52,4.25.62,7.95,1.13,9.1,6,7.23,37.54,12.7,75.3,12.89,113.62.07,13.77-.49,27.58-4.86,40.87C1002.75,678.17,998.18,694.3,995.67,711ZM874.76,508.26l1.36-.32-1.46.28c1.48-4.12,1-6.7-4.32-5.49-4.84-10.86-16.07-14.15-24.53-20.73-3.89-2.42-7.08-6.21-12.17-6.33a1.69,1.69,0,0,1-.48-2.07,13,13,0,0,0,1.47-1.75c10.16-.68,18.81,3.69,28,8.63.89-13.77-11.45-21.05-14.48-32.38.17-1.71-.23-3.14-1.89-4q-1.44-3.27-2.9-6.55l-.2-.36c-3.48-4.8-.51-13.28-8.93-15.6-1.62,13.39-3.22,26.58-4.83,39.77a.79.79,0,0,0-.11,1.18c-4.17,32.52-7.87,65.07-9.94,98.54l14.34-13.17-.08.07,3.77-3.77c3.21,1.61,3.41-2.21,5.33-3,3.61.35,2.52-2.69,3.2-4.45l-.05,0c3-.82,5.93-1.82,7.52-4.87l-.13.07,4.89-2.61h0L880.37,518l-12.47-9.25-4.76-1.14c-2.92-4.47-8-5.28-12.37-7.2l-.66-.24c-6.09-5.12-16.43-2-20.7-10.7l18.39,2.25c8.4,1.82,15.13,7.17,22.68,10.78Zm69.31,178.56c-7.2,24.83-26.65,30.76-49.2,31.79a52.59,52.59,0,0,1-11-.46c-13.88-2.29-26.55-6.08-32-21.59-2.55-7.3-5.83-14.14-6.34-22.13-.48-7.68-6.82-7.94-12.65-7.7-7,.29-3.56,5.91-3.53,8.74a124.27,124.27,0,0,0,2.2,23.11c6.23,30.85,27.13,49.4,51.76,51.52a110.48,110.48,0,0,0,36.43-3.3c33.79-8.45,44.48-42.25,40.65-70.41-.67-4.93-2.11-13.24-11.53-9-4.55-.74-9.28-1.44-11.41,4C934.72,678.52,939.8,682.57,944.07,686.82Z"/><path class="cls-1" d="M1292.72,1187.36c-5.32,11.07-2.65,23.4-6.6,35.23-7.78,23.32-19.58,42.61-37.17,59.8-20.54,20.06-45.83,30.75-71.47,40.73s-53.15,14.91-80.46,18.69c-36.69,5.07-73.64,6.94-110.71,8.25-25.27.89-50.56,2.09-75.81,1.57-43.17-.91-86.37-2.42-129.45-5.24-10.36-.68-21.45-.27-31.77-4.42,33.7-10.07,67.45-18.81,102-24.7,34.06-5.8,67-16.77,101.23-22.45,31.65-5.25,61.94-17.18,94.37-19.41,9.63-.67,19.17-4.72,28.45-8.07,8.75-3.16,18.23-3.18,27-4.74,19.43-3.45,38.37-9.87,58.83-9.95,10.91-.05,22.64-6.19,34.48-8.19,4.33-.74,8.29-7,5.93-12-8.62-18.39-9.55-38.71-12.64-58-2-12.79-10-26.48-3-40.38a2.68,2.68,0,0,0-.1-2.33c-8.66-12.1-7.3-26.9-11-40.32-.32-1.18-1.23-2.23-1.38-3.4-1.21-9.68-4.48-21.41,1.21-28.29,3.67-4.44,12.6,5.84,19.78,8.06,25,7.75,49.23,19,76.22,18.91,1.53,1.86,4,3.51,4.45,5.6C1282.15,1123.78,1294.63,1154.25,1292.72,1187.36Z"/><path class="cls-4" d="M674.86,1403.9c18.24,6.43,35.5,15,52.53,24-16.6,6.56-33.29,12.84-49.75,19.72-25.17,10.51-64.24,43.14-65.9,75.44-1.54,29.92,9.29,46.47,38.47,53.54,37.51,9.1,75.64,7,113.58,4.67,75.09-4.7,149.66-15,224.48-22.59,80.14-8.18,160.21-12.15,240.35.8,56.77,9.18,112.63,21.42,164.66,46.71,25.48,12.39,53.28,11.72,79.91,17.36-21.6,10.29-44.92,10.8-68,11.29-24.29.53-47.44-4.68-70-14.56-33.9-14.83-70.49-20.11-106.79-25.11-68.16-9.39-136.77-12.09-205.54-10.14-62.62,1.77-124.34,10.07-185.75,22.83-59.09,12.27-119,18.1-178.49,1.44-27.2-7.61-52.14-19.53-66.05-46.33-7.73-14.9-9.27-30.35-.73-45.57,4.12-7.34-2.14-5.79-5.3-6.71-31.72-9.21-63.44-18.39-92.65-34.4a121.71,121.71,0,0,1-31.9-24.48c-11.49-12.59-13.56-27.16-5.19-41.74,6.85-11.92,16.46-21.17,29.6-26.19,10.82,16.13,23.47,30.82,38.49,43,23.07,18.73,47.52,34.25,78.84,36.66C640.46,1466.43,672.9,1437.47,674.86,1403.9Z"/><path class="cls-2" d="M1033,632.75c2.23-34.53,8.1-68.51,15.75-102.21a83,83,0,0,0,1-8.38c1-2.5,2-5,2.93-7.51a42.32,42.32,0,0,1,24-.7c11.39,2.74,23.18,3.78,34.8,5.55l-.3-.58c1.4,4,4.86,2.73,7.69,3.08l-.4-.3c1.25,2.95,4.07,2.32,6.4,2.83a2.7,2.7,0,0,1,3.56,1.2c.74,2.76,2.75,3.59,5.35,3.5l-.44-.52c.73,2.8,3,3,5.28,3l-.26-.29c0,5.81,4.26,5.2,8.06,5.24l.8-.37.7.54c1.59,2.35,4,2.45,6.5,2.45l140.31-.13c3.28,0,6.72.31,7.7-4h48.94c-9.67,19.15-24.92,32.33-42.06,43.74-29.14,19.41-61.37,31.8-94.74,41.53-3.91,1.14-4.19,2.53-3.59,6.79,2,14.38,10.09,26.95,11.51,41.45.75,7.74,2.44,15.38,3.71,23.07a8.5,8.5,0,0,1-6.75,10c-11.53,1.27-19.26,11.17-30.58,12.22,3.41-13.49,4.7-27.12,1.53-40.81-1.87-8.1-7.95-8.94-14.64-2.33-4.52.16-7.88,1.92-8.13,6.87-.23,4.39,2.6,6.4,6.59,7.11,2.2,9.86-3.76,16.68-10.1,21.94-17.35,14.38-37.5,17.06-58.74,10.49-20.46-6.34-24.94-24.68-28.61-42.15-1.6-7.64-4.35-9.14-10.83-9.54-8-.49-7.93,6.85-7.52,10,3.67,28.26,6.76,57.22,37.91,70.91a30.61,30.61,0,0,0,22.59,4.42c22.46,1.42,43.42-1.58,59-20.19,10.81-15.66,29.69-17.87,44.64-26.62,2.9-1.7,3.23.93,4.1,3.6,4,12.53,3.07,25.51,4.28,38.29.28,3-1.13,4.42-4.13,4.67-17.2,1.45-34.07,6.06-51.49,5.38-4.7-5.72-10.58-1.47-14.59-.14-10.62,3.52-23-2.08-32.35,6.6-11.08,1.6-22,4.21-33.24,4.88-3.39.2-9.76-1.91-10.78,5-8.88,4-18.2,3.5-27.55,2.72-8.43-8.24-13.68-18.25-16.59-29.58,2.27-.39,4.16-1.51,3.19-4-11.14-28.67-8.13-58.64-8.55-88.33C1034.76,646.33,1036.89,639.22,1033,632.75ZM1197,576l.13.12-2.67-2.47.13.08c-5.2-2.21-8.55-8.58-15.46-6.89.75-.92,1.19-1.75-.58-1.89l.83,1.72,8,10.35c.45,5.68,5.05,9,7.7,13.41,10.82,18,16.3,19.5,35.87,10.18,6.33,0,9.72-5.88,15.22-7.55a2.6,2.6,0,0,0,1.84-.39l2.91-1.89,0,0,5.24-1.17a202.36,202.36,0,0,0,45.32-25.94c-18.37-3.46-35.25.09-51.59-4,.89-.91,3.21-2.54,2.55-2.51-10,.41-20.21-2.78-30,1.58l-7.55,1.45c9.34,6.36,17.85,11.77,21.74,22.84l-9.63-4.3c-10.21-6.23-20.39-12.5-32.3-15.07-.94-1.95-3.32-3.11-4.15-1.45-1.17,2.34,2,1.8,3.31,2.56,7.41,5.14,15.61,9.25,21.39,16.5a12.06,12.06,0,0,1-.26,1.46l-2.52,3-12.83-8.91Zm-15.92-16c1.77,1.26,3.54,1.85,5.48.35C1184.8,558.83,1183,558.54,1181.07,560Z"/><path class="cls-1" d="M593.13,1015.53c19.26,23.44,42.7,42.64,67.69,59,24.63,16.1,33.53,38.63,37.93,65.34,3,18,8.43,35.67,10.67,53.53,3.58,28.59,14.9,55.53,16.14,84.37.29,6.71,3.63,12.67,5.85,18,5.2,12.51,1.52,26.06,7.15,38.12,2.83,6.08-2.46,5.58-5.95,5.64-12,.2-23-4.38-34.26-7.37a195.08,195.08,0,0,1-69.05-34.23c-25.87-20-45.15-45.61-56.18-76.68-11.19-31.48-13.43-63.77-10.06-97.13,2.46-24.37,5.52-48.35,12.85-71.73C580.57,1039.6,580.82,1024.75,593.13,1015.53Z"/><path class="cls-4" d="M834.65,1450.15c46.75,3.79,93.54,6.52,140.48,4.48,71.39-3.1,142.12-10.77,211-30.87,2.67-.78,5.63-.57,8.45-.82a66.47,66.47,0,0,1,4.47,5.63c17.37,27.38,41.64,38.94,74.12,33.93,22.89-3.53,41.11-16.34,59.48-28.52,19.49-12.91,33.57-31.61,47.87-49.83,15.37,9,30.17,18.52,33.31,38.15,3,18.39-8.12,29.88-20.65,40.16a129.38,129.38,0,0,1-41.29,22.7c-51.28-4.64-102.54-9.73-154.13-8.06-37.25,1.21-74.46,4.16-111.67,5.61-61.81,2.42-123.1,9.35-184.39,16.54Q843.4,1506.11,785,1512.6c-15,1.64-30.94,6.54-46.71,1.55-4.16-1.31-9.28-.1-9.89-6.51-.54-5.58.8-9.82,5.77-13.51a150.5,150.5,0,0,1,31.75-18.06c20.44-8.55,40.17-19.25,62.69-22.07C830.76,1453.73,832.65,1451.48,834.65,1450.15Z"/><path class="cls-2" d="M1380.55,1384.15c-14.3,18.22-28.38,36.92-47.87,49.83-18.37,12.18-36.59,25-59.48,28.52-32.48,5-56.75-6.55-74.12-33.93a66.47,66.47,0,0,0-4.47-5.63c-6.8-23.57,4.24-42.93,15.52-61.73,13.7-22.83,31.08-43.1,48-63.56,13.22-16,28-30.7,42.09-46,9.25-7.28,16.21-17.5,27.89-21.68,3.23-1,6.27-2.12,6.22-6.32l2.66-1.92c1.69-.81,4.07-.52,4.75-3l-.37.27c14.23-1.91,26.55-12,41.75-9.71,21.86,5.51,28.34,22.06,30.33,42,4.5,45.05-9.49,85.75-29.25,125.12C1382.93,1379,1381.77,1381.59,1380.55,1384.15Zm-41.18-39.39c1-11.93-3.39-21.49-13.64-27-13.23-7.07-21.82-5.45-33.59,6.31-17.33,17.31-32,36.12-36.76,61.46-4.48,24,7.33,30.18,27.16,29.77,5.89-.12,9.94-3.85,14.09-6.47C1320.35,1394,1337.33,1374.15,1339.37,1344.76Zm38.69-35.66c-10.4-.29-24.2,8.6-23.68,15.53.4,5.25,3.68,7.83,9,7.95,8.06.17,22-11.85,21.73-18.89C1384.93,1308.92,1381.33,1309.22,1378.06,1309.1Zm-51.29-35.55c1.64-7.07-3.52-12.28-7.91-11.25-9.62,2.27-10.92,12.26-12.6,20.54-1.12,5.55,1.93,10.3,7.94,9.82C1326.05,1291.7,1324.85,1281.29,1326.77,1273.55Zm34.06,11.48c0-3.43.64-8-5.14-8.56s-17.44,11.64-18.49,19.06c-.61,4.34-.3,8.27,5.15,9.18C1349.39,1305.88,1359.81,1295.06,1360.83,1285Z"/><path class="cls-2" d="M674.86,1403.9c-2,33.57-34.4,62.53-71.15,59.7-31.32-2.41-55.77-17.93-78.84-36.66-15-12.19-27.67-26.88-38.49-43-17.95-33.67-31.89-68.58-33.73-107.32-.41-8.57-.47-17.07,1.06-25.54,7.24-6.37,5.68-15.29,6.76-23.44,6.9-16.94,16.69-22.24,36.51-19.64,16.91,2.22,30.67,10.38,42.74,22.16,3.57,3.48,8.49,5.58,12.8,8.31l4.15,4.08a1.06,1.06,0,0,0,.92.86l6,5.53-.09-.09a5,5,0,0,1,.28,2c0,3.52,1.71,5.26,5.25,5.17a4,4,0,0,1,2,.31c14,15.39,29.4,29.75,41.63,46.43,12.78,17.45,29.23,32.14,39.13,51.72-3.31,4.85.09,5.84,3.82,6.64l-.42.49-.48-.43c.88,1,1.75,1.93,2.62,2.9l-.21-.28c.52,7.23,1.86,14,9.41,17.43a1.07,1.07,0,0,1,.45,1.66c.29,6.47-1.63,13.65,5.67,17.92l-.57.28-.29-.57c.71.9,1.41,1.81,2.11,2.71A.76.76,0,0,1,674.86,1403.9ZM527,1344.47c0,27.61,24.16,57,56.73,68.9,17.32,6.33,30.14-3,28.39-21.4-1.12-11.72-5.47-22.3-11.17-33-6.37-11.93-16.12-20.77-23.77-31.36-4.55-6.29-11.94-13.74-20.91-14.13C537.8,1312.7,527,1324.88,527,1344.47Zm12.71-72.32c2,8.08.47,19,12.62,20.53,5.69.71,9.65-4.07,8.07-9.61-2.14-7.55-1.09-18-12.84-19.34C541.52,1263.05,538.31,1265.33,539.66,1272.15ZM490.06,1309c-3,.63-7.35-.36-7.84,5.06-.66,7.31,13,19,20.14,16.76,3.32-1,8.39-1.42,8.83-5.37.47-4.23-1.67-8.42-6.07-10.91C500.47,1311.9,495.75,1309.7,490.06,1309Zm17.28-21.39c.07,9.69,6.89,17.7,14.7,17.47,5.35-.15,8.42-2.12,7.94-8.06-.64-7.77-10.25-18-17-18C506.4,1278.93,508.07,1284,507.34,1287.61Z"/><path class="cls-2" d="M697.65,1073c-21.44-10-38.84-25.26-53.51-43.4-11-13.63-23-26.79-29.59-43.54.82-1.89-.39-2.21-1.82-2.36l-2.52-2.45c10.92-29.46,24.32-57.53,42.19-83.64,6.82-10,14.51-19.66,19.73-30.78,9-6.76,11.56.65,14.17,6.73,10.13,23.6,18.89,47.79,31.67,70.2,6.6,11.58,11.65,24.25,19.57,34.8,7.06,9.38,18.86,14.19,28,22,6.81,5.79,16.16,8.61,24.37,12.76,13.87,10.1,28.1,19.78,39,33.33,2.75,14.84-3.87,24-17.25,29.69-10,4.25-19.83,9.16-29.72,13.77-3.22.3-6.44.51-9.64.91Q731.6,1095.93,697.65,1073Z"/><path class="cls-2" d="M1260.84,1060.28l-14.85-2.63c-5-1.53-9.28-5.27-14.94-4.54-25-8.31-49.83-16.85-72.7-30.22-4.17-21.91-9.66-43.69-11.95-65.79-1.2-11.58-5.49-11.08-13.71-9.41-12.79,2.6-25.69,4.65-38.54,6.94-13.07-29.65-10.58-57.14,11-82.19,2-2.28,2.54-5.75,3.77-8.68l-.06.06c6-.8,8.94-4.47,9.57-10.29,1.51-.44,3.76-.4,4.41-1.41,9.17-14,24.54-19.9,37.55-28.87l8.28-3.86.75.13.52-.55,3.26-1,.09.21c8.74-1.76,17.35-4.69,26.47-3.18,13.27,2.2,18,9,15.72,22.36-3.23,19.1-13,36.14-17,55-5.12,23.86-5.58,23.75,16.66,32.83,2.23.91,4.34,2.1,6.5,3.16,12.22,6.21,20.15,15.55,21.75,29.6,0,.4,1.4.66,2.15,1,3.78,16.7,7.63,33.39,11.31,50.11,3.22,14.62,3.07,29.85,8.11,44.17C1266.17,1056.58,1267.15,1060.86,1260.84,1060.28Z"/><path class="cls-2" d="M1192.08,792.26l-19.78-3.21c-.67-2.65-2.24-4.2-5.1-4.14-14.91.33-29-6.07-44.17-4.9-6.84.52-14.52-.84-19.36-7.47,3.94-2.55,8.53-2.44,12.93-3,21.8-2.74,43.6-5.52,65.44-8,16.43-1.89,32.53-6.36,49.22-6.16q-.27,8.88-.55,17.77c-9.55,7.84-21,12.25-31.83,17.9Z"/><path class="cls-3" d="M1231.26,755.35c-16.69-.2-32.79,4.27-49.22,6.16-21.84,2.52-43.64,5.3-65.44,8-4.4.55-9,.44-12.93,3-6.41-2.73-12.89,1.09-19.32-.23,1-6.94,7.39-4.83,10.78-5,11.27-.67,22.16-3.28,33.24-4.88a239,239,0,0,0,46.94-6.46c17.42.68,34.29-3.93,51.49-5.38,3-.25,4.41-1.7,4.13-4.67-1.21-12.78-.24-25.76-4.28-38.29-.87-2.67-1.2-5.3-4.1-3.6-15,8.75-33.83,11-44.64,26.63l-2.36-1.65c.44-.62,1.41-1.56,1.26-1.79-1-1.59-1.9-.7-2.67.39-19.32,5.58-38.43,11.68-55.25,23.23a30.59,30.59,0,0,1-22.6-4.43c5.92-.72,11.69,1,17.9-1.53,25-10,50.25-19.45,74.64-30.94,11.32-1,19.05-10.95,30.58-12.22a8.5,8.5,0,0,0,6.75-10c5.19.44,4.86,4.28,5.21,8,1.27,13.74,3.43,27.43,3.85,41.19.21,7,1.91,8.58,8.32,7.23,7.1-1.49,14.34-2.35,21.5-3.58,2.55-.44,6.19-3,6.63,1.56.33,3.32-3.13,4-6.29,3.79C1253.63,749.26,1242.55,753,1231.26,755.35Z"/><path class="cls-5" d="M1302.39,535.13c-1,4.36-4.42,4-7.7,4l-140.31.13c-2.46,0-4.91-.1-6.5-2.45Z"/><path class="cls-1" d="M1198.88,791c10.79-5.65,22.28-10.06,31.83-17.9l.63,21.49A105.5,105.5,0,0,1,1198.88,791Z"/><path class="cls-5" d="M809.28,455.91c4.74,7.06,2.81,15.17,1.82,22.29-3.05,21.77-1.35,43.56-2,65.32-.08,2.81.23,5.72-2.09,7.93C806.33,519.57,804.89,487.68,809.28,455.91Z"/><path class="cls-3" d="M1198.88,791a105.5,105.5,0,0,0,32.46,3.59c8.54,5.66,18.76.06,27.63,5.2-7.51,2.59-15.26-2-22.75-.2-13.8-.85-27.59-1.79-41.39-2.49-4-.2-3.57-2.26-2.75-4.86Z"/><path class="cls-5" d="M1111.44,519.5c-11.62-1.77-23.41-2.81-34.8-5.55a42.32,42.32,0,0,0-24,.7c-1-3.67.57-5.5,4.22-5.33C1075.55,510.14,1094.2,511,1111.44,519.5Z"/><path class="cls-5" d="M1383.12,1209.37c-15.2-2.28-27.52,7.8-41.75,9.71,10.07-7.63,21.36-12.11,34-12.52C1378,1206.47,1381.94,1204.71,1383.12,1209.37Z"/><path class="cls-5" d="M814.44,404.45c3.17,10.71.07,40.46-4.85,46.4C810.68,435.33,811.33,419.76,814.44,404.45Z"/><path class="cls-5" d="M1245.58,959c-.75-.32-2.1-.58-2.15-1-1.6-14.05-9.53-23.39-21.75-29.6l15.38,4.58C1244.65,940.07,1243,950.2,1245.58,959Z"/><path class="cls-5" d="M460.47,1227.63c-1.08,8.15.48,17.07-6.76,23.44C453.35,1242.5,456.35,1234.9,460.47,1227.63Z"/><path class="cls-5" d="M738.18,733.37c2.72,7.26-5.23,13-2.85,20.22l-4.7-3.23A48.11,48.11,0,0,1,738.18,733.37Z"/><path class="cls-1" d="M556.67,1242.54l-4.15-4.08c-.49-4-2.38-8.24,1.33-11.81C557.05,1231.55,561.23,1236.27,556.67,1242.54Z"/><path class="cls-5" d="M1146.38,536.69c-3.8,0-8,.57-8.06-5.24Z"/><path class="cls-5" d="M1334.33,1223.68c.05,4.2-3,5.35-6.22,6.32C1328,1225.73,1331.84,1225.38,1334.33,1223.68Z"/><path class="cls-5" d="M1118.83,522c-2.83-.35-6.29.87-7.69-3.08C1113.84,519.6,1116.92,519.33,1118.83,522Z"/><path class="cls-5" d="M1133.74,529.23c-2.6.09-4.61-.74-5.35-3.5Z"/><path class="cls-5" d="M1124.83,524.53c-2.33-.51-5.15.12-6.4-2.83C1120.8,522.09,1123.25,522.33,1124.83,524.53Z"/><path class="cls-3" d="M1236.88,695c-.09.27-.19.54-.29.81a2.64,2.64,0,0,1-.89-.36c-.08-.07.16-.51.26-.78Z"/><path class="cls-5" d="M1341.74,1218.81c-.68,2.43-3.06,2.14-4.75,3Z"/><path class="cls-5" d="M1138.58,531.74c-2.32,0-4.55-.23-5.28-3Z"/><path class="cls-5" d="M807.11,556.64a8.27,8.27,0,0,1,.74,1.49c0,.14-.43.44-.67.66A2.46,2.46,0,0,1,807.11,556.64Z"/><path class="cls-6" d="M1094.15,954.63c12.85-2.29,25.75-4.34,38.54-6.94,8.22-1.67,12.51-2.17,13.71,9.41,2.29,22.1,7.78,43.88,11.95,65.79q10.85,62.64,21.67,125.27c4.74,27.32,9.56,54.63,14.22,82,1.11,6.51-.63,10.26-8.43,11.71-66.94,12.46-133.75,25.66-200.68,38.18C919.79,1292.25,854.33,1303.9,789,1316c-11.22,2.07-22.37,4.58-33.43,7.41-6.07,1.55-9.73,1.67-11.15-6.08-4.32-23.66-9.3-47.21-14.12-70.78q-8.19-40.1-16.53-80.16c-5.49-26.28-11.27-52.51-16.5-78.84-.92-4.64.22-9.69.42-14.54q34,23,74.65,18c3.2-.4,6.42-.61,9.63-.92-5.45,19.44-8.3,39.46-13.51,59.06-4.87,18.38-4.82,38.27-10.26,56.93-4.21,14.43.65,27.92,3.58,41.71,1.18,5.5,3.64,6.17,8.53,5.08,15.92-3.57,32.12-6.08,47.83-10.36,11.18-3,16-1.47,18.16,11.21,5,29.14,5.78,29,34.77,21.94.4-.09.81-.13,1.21-.2,4.5-.79,5.64-2.13,4-7.41-2.9-9.24-3.86-19.09-5.7-28.68-.82-4.27-1.5-8.31,4.79-8.59,10.45-.47,11.71-6,8.48-14.67a55,55,0,0,1-2.79-13.14c-.67-6.18-2.69-8.67-9.34-6.06-7,2.74-10.25.65-11.78-7.87-4.94-27.67-10.22-55.37-17.38-82.52-5.24-19.84-3.12-41.31-13.59-59.88-10.93-13.55-25.16-23.23-39-33.33,17.09-7.38,35.71-8,53.57-11.84,39-8.47,78.3-15.16,117.43-22.78,29.86-5.82,59.88-11.4,89.95-16.37C1065.29,959.85,1079.71,957.18,1094.15,954.63Zm-144,305.71c39.39,4.25,65.29-32.27,59.65-61.09-9-46.09-18.09-92.23-29.25-137.83-8.34-34.09-31.25-46.9-65.29-40.73-12.49,2.26-26.46,6.6-33.13,15.08-8.91,11.32-17.28,26.91-13.49,42.73,11,45.76,18.43,92.28,29.93,137.88C906.36,1247.38,919,1262.68,950.13,1260.34Zm73.93-71.23c-3.82,10.94,3.27,13.07,8.92,10,15.71-8.48,33.46-5.85,49.62-11.12,8.43-2.75,14.85-1.42,16.09,9.38.79,6.85,3,13.54,4.14,20.36,1.82,10.67,7.55,11.42,15.29,6.06a13.38,13.38,0,0,1,5.46-1.94c17.44-3.82,17.45-3.83,13.93-21.15-.56-2.79-1.26-5.55-1.84-8.33-1.69-8.13-1-15,8.27-18.45,6-2.25,7.72-6.24,4.14-12.42-1.93-3.34-2.63-7.53-3.3-11.43-1.31-7.61-4.49-12-12.87-8.51-6.26,2.63-7.55-.79-8.62-6-8.12-39.42-16.52-78.78-24.67-118.19-7-33.67-6.82-33.48-40.23-24.16-5,1.38-6.57,3.78-7.53,8-8,35.44-14.34,71.24-22.08,106.75C1023,1134.39,1013.49,1162.14,1024.06,1189.11Z"/><path class="cls-3" d="M1170,819l-.52.55-.75-.13c-3.36,0-7-.69-8.28,3.86-13,9-28.38,14.84-37.55,28.87-.65,1-2.9,1-4.41,1.41-5.92.9-9.51,4-9.57,10.29l.06-.06c-13.24,7.73-22.21,19.43-29.61,32.43-3,5.24-5.35,10.78-10.63,14.84,8.21-45.29,59.11-106.26,115.71-100.69-2.68,4.12-10,1.6-11.1,7.83l-.09-.22Z"/><path class="cls-2" d="M1108.8,784.91c11.07,2.3,22.07,5,33.22,6.75,6.76,1.08,13.75.57,20.61,1.13,6.46.54,12.88,1.54,22,2.67-24.16,9.08-46.65,10.74-69.62,8.25-13.2-1.43-24.86-7.31-36.56-13.1-3.72-1.83-7.43-3-6.71-8.15.76-1.6,2-2.8,3.77-2.37,9.21,2.24,18.25,8.71,27.88.73C1103.81,780.49,1106.94,783.47,1108.8,784.91Z"/><path class="cls-4" d="M1018.48,801.68c-8-8.89-13.47-19.38-19.49-29.53-1.11-1.88-3.39-3.68-1.65-6.51,3.23-5.24,32.18-10.12,36.23-5.75,2.84,3.08,3.4,6.67,2,11.22-3.49,11.44-9.59,21.53-15,32C1019.9,802.66,1019.19,802.17,1018.48,801.68Z"/><path class="cls-3" d="M941.73,802c-13.07,8.53-28.65,8.62-43.08,11.63-40.57,8.47-81.5,15.13-122.33,22.3a28.13,28.13,0,0,1-13.5-1.41c36.42-6.77,72.88-13.39,109.27-20.38,23.13-4.45,46-10.19,69.59-12.2Z"/><path class="cls-2" d="M1010.39,836.19c1.52-4.74,8-6.36,7.76-12.19,2.52.36,4-1,5.05-3.06,7.45.81,12.36-4.62,18.13-7.66,16-8.4,31.58-6.21,47.48.2-28.85-.22-52.54,11.65-73.53,30.11C1013.42,841.28,1009.8,840.13,1010.39,836.19Z"/><path class="cls-5" d="M1108.8,784.91c-1.86-1.44-5-4.42-5.39-4.09-9.63,8-18.67,1.51-27.88-.73-1.76-.43-3,.77-3.77,2.37-3.56-5.36-13.29,1.74-15-7.43,9.35.78,18.67,1.27,27.55-2.72,6.43,1.32,12.91-2.5,19.32.23,4.84,6.63,12.52,8,19.36,7.47,15.17-1.17,29.26,5.23,44.17,4.9,2.86-.06,4.43,1.49,5.1,4.14C1151.08,788.47,1130.23,782.25,1108.8,784.91Z"/><path class="cls-5" d="M1033,632.75c3.94,6.47,1.81,13.58,1.9,20.36.42,29.69-2.59,59.66,8.55,88.33,1,2.5-.92,3.62-3.19,4-10.68-31.63-10.45-64.22-8.47-97C1032.06,643.24,1032.54,638,1033,632.75Z"/><path class="cls-3" d="M912.13,783.1h2.6c2.41,6.79,8.21,3.66,12.6,4.07,12.75,1.19,25.92-2.36,41.21,4.23h-89c7.84-4.23,16.48,1.66,22.92-4.38l7-2.29Z"/><path class="cls-5" d="M805.61,787.63a49.59,49.59,0,0,1,7.25-.66c18.63,1,37.25,2.11,55.85,4.1C847.78,793.6,827,793.16,805.61,787.63Z"/><path class="cls-5" d="M1010.39,836.19c-.59,3.94,3,5.09,4.89,7.4-8.12,8.16-16.65,15.94-24.24,24.81C995,856.08,1001.78,845.58,1010.39,836.19Z"/><path class="cls-5" d="M995.67,711c2.51-16.65,7.08-32.78,12.16-48.8C1007.93,679.46,1003.4,695.6,995.67,711Z"/><path class="cls-3" d="M899.11,768.29c-12.87,7.91-26.77.84-40.12,3.66,8.88-3.29,18.84,3.08,27-4.46C890.93,758.2,894.65,769.24,899.11,768.29Z"/><path class="cls-5" d="M776.9,777.78l24.49-.27c3.32,0,6.73-.21,7.61,4.2C798.36,779.88,787.06,783.53,776.9,777.78Z"/><path class="cls-5" d="M1023.2,820.94c-1,2.11-2.53,3.42-5.05,3.06l.33-22.32c.71.49,1.42,1,2.13,1.45C1022.93,808.84,1022.86,814.92,1023.2,820.94Z"/><path class="cls-3" d="M953.08,780.46c5.37-.78,8.61-.07,11.11,3.32C959.81,785.68,956.52,784.34,953.08,780.46Z"/><path class="cls-3" d="M945,775.81c.6.57,1.91,1.22,2.08,2.1.31,1.48-1.12,1.78-2.28,1.55a2.79,2.79,0,0,1-1.9-1.22C942.35,776.88,943.11,776,945,775.81Z"/><path class="cls-3" d="M941.68,802l4-2.08.75,1.5-4.73.64Z"/><path class="cls-5" d="M772.39,777.23c2.88-2.78,4-1.88,3.67,1.8C774.83,778.44,773.61,777.83,772.39,777.23Z"/><path class="cls-5" d="M666.47,1381.22c-7.55-3.43-8.89-10.2-9.41-17.43C661.47,1368.91,664.07,1375,666.47,1381.22Z"/><path class="cls-5" d="M672.59,1400.8c-7.3-4.27-5.38-11.45-5.67-17.92A40,40,0,0,1,672.59,1400.8Z"/><path class="cls-7" d="M1231.05,1053.11c5.66-.73,10,3,14.94,4.54C1239.3,1061.76,1234.66,1059.13,1231.05,1053.11Z"/><path class="cls-1" d="M563.76,1250.84a5,5,0,0,0-.28-2c5.61-.61,8.06,1.92,7.49,7.48a4,4,0,0,0-2-.31Z"/><path class="cls-5" d="M655.55,1361.11c-3.73-.8-7.13-1.79-3.82-6.64Z"/><path class="cls-1" d="M563.57,1248.93l-6-5.53C564.17,1240.28,563.21,1245.32,563.57,1248.93Z"/><path class="cls-7" d="M612.73,983.66c1.43.15,2.64.47,1.82,2.36C613.94,985.23,613.33,984.45,612.73,983.66Z"/><path class="cls-5" d="M657.27,1364.07c-.87-1-1.74-1.94-2.62-2.9C656.88,1360.91,656.87,1362.68,657.27,1364.07Z"/><path class="cls-5" d="M673.84,1403.22c-.7-.9-1.4-1.81-2.11-2.71C673.75,1400.39,673.84,1401.78,673.84,1403.22Z"/><path class="cls-4" d="M948.88,667.37c9.42-4.22,10.86,4.09,11.53,9,3.83,28.16-6.86,62-40.65,70.41a110.48,110.48,0,0,1-36.43,3.3c-24.63-2.12-45.53-20.67-51.76-51.52a124.27,124.27,0,0,1-2.2-23.11c0-2.83-3.43-8.45,3.53-8.74,5.83-.24,12.17,0,12.65,7.7.51,8,3.79,14.83,6.34,22.13,5.42,15.51,18.09,19.3,32,21.59a52.59,52.59,0,0,0,11,.46c22.55-1,42-7,49.2-31.79C951.85,681.86,952.14,675.05,948.88,667.37Z"/><path class="cls-4" d="M863.14,507.65l4.76,1.14c3.22,6.44,4.6,12.15-4.74,14.74-2.6.72-5.25,2.34-5,5.92h0c-2.06.06-4.38-.36-4.89,2.61l.13-.07c-5.38-2.81-6,1.71-7.52,4.87l.05,0c-2.44.5-2.72,2.55-3.2,4.45-1.92.74-2.12,4.56-5.33,3a4.71,4.71,0,0,0-3.77,3.77l.08-.07c-6.15,1.62-10.52,1.12-9.78-7.11.43-4.85-.14-9.78.06-14.67,1-23.91,3.41-26.27,26.09-25.93l.66.24C852.73,506.56,858.41,506.3,863.14,507.65Z"/><path class="cls-3" d="M850.11,500.21c-22.68-.34-25.1,2-26.09,25.93-.2,4.89.37,9.82-.06,14.67-.74,8.23,3.63,8.73,9.78,7.11L819.4,561.09c2.07-33.47,5.77-66,9.94-98.53,6.56,9.25,17.52,6,26,10.32-1.24-9.31-8.45-15.73-7.18-24.78,3,11.33,15.37,18.61,14.48,32.38-9.24-4.94-17.89-9.31-28-8.63l-2.65-.54c.39.76.78,1.53,1.18,2.29a1.69,1.69,0,0,0,.48,2.07c-6.19,3.16-4.25,8.79-4.23,13.84C833.68,498.18,844,495.09,850.11,500.21Z"/><path class="cls-4" d="M848.2,448.1c-1.27,9,5.94,15.47,7.18,24.78-8.52-4.33-19.48-1.07-26-10.32a.81.81,0,0,1,.11-1.2c8.08-5.2,3.43-13.26,4.32-20,1-7.33,3.7-8.66,9.44-4.16l.2.37c.84,2.24-2.86,6.49,2.9,6.54C848,445,848.37,446.39,848.2,448.1Z"/><path class="cls-4" d="M829.41,489.51c0-5.05-2-10.68,4.23-13.84,5.09.12,8.28,3.91,12.17,6.33q1,4.88,2,9.76Z"/><path class="cls-3" d="M948.88,667.37c3.26,7.68,3,14.49-4.81,19.45-4.27-4.25-9.35-8.3-6.6-15.4C939.6,665.93,944.33,666.63,948.88,667.37Z"/><path class="cls-3" d="M843.21,437.2c-5.74-4.5-8.47-3.17-9.44,4.16-.89,6.74,3.76,14.8-4.32,20,1.61-13.18,3.21-26.37,4.83-39.76C842.7,423.92,839.73,432.4,843.21,437.2Z"/><path class="cls-3" d="M847.8,491.76q-1-4.89-2-9.76c8.46,6.58,19.69,9.87,24.53,20.73l.14-.19C862.93,498.93,856.2,493.58,847.8,491.76Z"/><path class="cls-3" d="M858.17,529.45c-.26-3.58,2.39-5.2,5-5.92,9.34-2.59,8-8.3,4.74-14.74L880.37,518Z"/><path class="cls-3" d="M863.14,507.65c-4.73-1.35-10.41-1.09-12.37-7.2C855.17,502.37,860.22,503.18,863.14,507.65Z"/><path class="cls-3" d="M845.91,536.87c1.51-3.16,2.14-7.68,7.52-4.87C851.84,535.05,848.93,536.05,845.91,536.87Z"/><path class="cls-3" d="M846.31,444.11c-5.76-.05-2.06-4.3-2.9-6.54Q844.87,440.84,846.31,444.11Z"/><path class="cls-3" d="M874.76,508.26l-4.28-5.72-.14.19c5.3-1.21,5.8,1.37,4.32,5.49Z"/><path class="cls-3" d="M853.3,532.07c.51-3,2.83-2.55,4.89-2.61Z"/><path class="cls-3" d="M842.76,541.27c.48-1.9.76-3.95,3.2-4.45C845.28,538.58,846.37,541.62,842.76,541.27Z"/><path class="cls-1" d="M912.13,783.1l-2.62,1.64C910,783.56,910.49,782.41,912.13,783.1Z"/><path class="cls-3" d="M833.66,548a4.71,4.71,0,0,1,3.77-3.77Z"/><path class="cls-3" d="M874.66,508.22l1.46-.28-1.36.32Z"/><path class="cls-4" d="M1188.83,713.91c-24.39,11.49-49.64,20.9-74.64,30.94-6.21,2.49-12,.81-17.9,1.53-31.15-13.68-34.24-42.64-37.91-70.9-.41-3.14-.49-10.48,7.52-10,6.48.4,9.23,1.9,10.83,9.54,3.67,17.47,8.15,35.81,28.61,42.15,21.24,6.57,41.39,3.89,58.74-10.49,6.34-5.26,12.3-12.08,10.08-21.94,3.85-.06,7-1.36,7.67-5.55.8-4.71-1.9-7.19-6.11-8.43,6.69-6.61,12.77-5.77,14.64,2.33C1193.53,686.79,1192.24,700.42,1188.83,713.91Z"/><path class="cls-4" d="M1249.86,559.65c16.34,4.1,33.22.55,51.59,4a202.79,202.79,0,0,1-45.32,26c-2.05-.94-4.17-2.27-5.24,1.16l0,0-2.91,1.89a2.62,2.62,0,0,1-1.85.39c-6.27.09-12.93-.6-15.21,7.55-19.57,9.32-25,7.81-35.87-10.18-2.65-4.42-7.25-7.73-7.7-13.41,1.25-3.65,4.59-2.68,7.21-3.29l-.13-.08c.13,1.65,1.15,2.33,2.67,2.47L1197,576c.39,2,1.24,2.37,2.67.79l12.83,8.9,3.36,3.5c.83.59,2,1.88,2.44,1.66,2-.89,1-2.28.12-3.51l-3.4-4.64a10.26,10.26,0,0,0,.25-1.47c3.39-3.3,7.78-2,11.76-2.53l9.63,4.3c-3.89-11.07-12.4-16.48-21.74-22.84l7.54-1.45Z"/><path class="cls-4" d="M1175.55,729l2.36,1.65c-15.61,18.6-36.57,21.6-59,20.18,16.83-11.55,35.94-17.65,55.26-23.23Z"/><path class="cls-5" d="M1175.31,755.94a239,239,0,0,1-46.94,6.46c9.35-8.68,21.73-3.08,32.35-6.6C1164.73,754.47,1170.61,750.22,1175.31,755.94Z"/><path class="cls-3" d="M1227,578.71c-4,.58-8.37-.77-11.76,2.53-5.77-7.24-14-11.35-21.38-16.49q.4-.57.84-1.11C1206.63,566.21,1216.81,572.48,1227,578.71Z"/><path class="cls-3" d="M1175.72,670.77c4.21,1.24,6.91,3.72,6.11,8.43-.71,4.19-3.82,5.49-7.67,5.55-4-.71-6.8-2.72-6.57-7.11C1167.84,672.69,1171.2,670.93,1175.72,670.77Z"/><path class="cls-5" d="M1249.86,559.65l-27.41-.93c9.75-4.36,20-1.17,30-1.58C1253.07,557.11,1250.75,558.74,1249.86,559.65Z"/><path class="cls-3" d="M1194.58,573.75c-2.62.61-6-.36-7.21,3.29l-8-10.35-.28.19C1186,565.17,1189.38,571.54,1194.58,573.75Z"/><path class="cls-3" d="M1230.94,600.63c2.28-8.15,8.94-7.46,15.21-7.55C1240.66,594.75,1237.27,600.64,1230.94,600.63Z"/><path class="cls-3" d="M1181.07,560c2-1.44,3.73-1.15,5.48.35C1184.61,561.83,1182.84,561.24,1181.07,560Z"/><path class="cls-3" d="M1193.88,564.75c-1.28-.76-4.48-.22-3.31-2.56.83-1.66,3.21-.5,4.15,1.45Q1194.29,564.18,1193.88,564.75Z"/><path class="cls-3" d="M1250.89,590.77c1.07-3.43,3.19-2.1,5.24-1.16Z"/><path class="cls-3" d="M1197.12,576.14c-1.52-.14-2.54-.82-2.67-2.47Z"/><path class="cls-3" d="M1179.37,566.69c-.28-.57-.56-1.15-.83-1.72,1.77.14,1.33,1,.57,1.9Z"/><path class="cls-3" d="M1248,592.69l2.91-1.89Z"/><path class="cls-3" d="M1199.66,576.8c-1.43,1.58-2.28,1.2-2.67-.79Z"/><path class="cls-3" d="M1339.37,1344.76c-2,29.39-19,49.19-42.74,64.11-4.15,2.62-8.2,6.35-14.09,6.47-19.83.41-31.64-5.72-27.16-29.77,4.73-25.34,19.43-44.15,36.76-61.46,11.77-11.76,20.36-13.38,33.59-6.31C1336,1323.27,1340.32,1332.83,1339.37,1344.76Z"/><path class="cls-3" d="M1378.06,1309.09c3.27.13,6.87-.17,7.06,4.6.28,7-13.67,19.06-21.73,18.89-5.33-.12-8.61-2.7-9-7.95C1353.86,1317.7,1367.66,1308.81,1378.06,1309.09Z"/><path class="cls-3" d="M1326.77,1273.55c-1.92,7.74-.72,18.15-12.57,19.11-6,.48-9.06-4.27-7.94-9.82,1.68-8.28,3-18.27,12.6-20.54C1323.25,1261.27,1328.41,1266.48,1326.77,1273.55Z"/><path class="cls-3" d="M1360.83,1285c-1,10-11.44,20.85-18.48,19.68-5.45-.91-5.76-4.84-5.15-9.18,1-7.42,12.71-19.64,18.49-19.06S1360.86,1281.6,1360.83,1285Z"/><path class="cls-3" d="M527,1344.47c0-19.59,10.85-31.77,29.27-31,9,.39,16.36,7.84,20.91,14.13,7.65,10.59,17.4,19.43,23.77,31.36,5.7,10.69,10.05,21.27,11.17,33,1.75,18.37-11.07,27.73-28.39,21.4C551.11,1401.47,526.91,1372.08,527,1344.47Z"/><path class="cls-3" d="M539.66,1272.15c-1.35-6.82,1.86-9.1,7.85-8.42,11.75,1.33,10.7,11.79,12.84,19.34,1.58,5.54-2.38,10.32-8.07,9.61C540.13,1291.15,541.61,1280.23,539.66,1272.15Z"/><path class="cls-3" d="M490.06,1309c5.69.7,10.41,2.9,15.06,5.54,4.4,2.49,6.54,6.68,6.07,10.91-.44,4-5.51,4.36-8.83,5.37-7.16,2.19-20.8-9.45-20.14-16.76C482.71,1308.64,487,1309.63,490.06,1309Z"/><path class="cls-3" d="M507.33,1287.61c.74-3.61-.93-8.68,5.65-8.62,6.75.06,16.36,10.26,17,18,.48,5.94-2.59,7.91-7.94,8.06C514.23,1305.31,507.41,1297.3,507.33,1287.61Z"/><path class="cls-5" d="M563.76,1250.84,569,1256C565.47,1256.1,563.73,1254.36,563.76,1250.84Z"/><path class="cls-5" d="M828.9,1046.56c10.47,18.57,8.35,40,13.59,59.88,7.16,27.15,12.44,54.85,17.38,82.52,1.53,8.52,4.77,10.61,11.78,7.87,6.65-2.61,8.67-.12,9.34,6.06a55,55,0,0,0,2.79,13.14c3.23,8.67,2,14.2-8.48,14.67-6.29.28-5.61,4.32-4.79,8.59,1.84,9.59,2.8,19.44,5.7,28.68,1.66,5.28.52,6.62-4,7.41-.4.07-.81.11-1.21.2-29,7.06-29.75,7.2-34.77-21.94-2.19-12.68-7-14.25-18.16-11.21-15.71,4.28-31.91,6.79-47.83,10.36-4.89,1.09-7.35.42-8.53-5.08-2.93-13.79-7.79-27.28-3.58-41.71,5.44-18.66,5.39-38.55,10.26-56.93,5.21-19.6,8.06-39.62,13.51-59.06,9.9-4.6,19.68-9.51,29.73-13.76C825,1070.61,831.65,1061.4,828.9,1046.56Zm-23.33,81c-4.6,24.75-9.35,49.48-13.61,74.29-.59,3.45-3.59,11.37,3.82,9.73,8.27-1.84,16.82-1.33,24.92-4,3.4-1.13,4.7-2.1,3.92-5.78C819.32,1176.81,815.17,1151.62,805.57,1127.52Z"/><path class="cls-1" d="M1108.91,863.82c.06-6.34,3.65-9.39,9.57-10.29C1117.85,859.35,1114.92,863,1108.91,863.82Z"/><path class="cls-1" d="M1160.44,823.25c1.23-4.55,4.92-3.86,8.28-3.86Z"/><path class="cls-1" d="M1170,819l3.26-1C1172.17,818.3,1171.08,818.64,1170,819Z"/><path class="cls-4" d="M1174.14,727.58c.77-1.09,1.65-2,2.67-.39.15.23-.82,1.17-1.26,1.79Z"/><path class="cls-5" d="M950.13,1260.34c-31.15,2.34-43.77-13-51.58-44-11.5-45.6-18.95-92.12-29.93-137.88-3.79-15.82,4.58-31.41,13.49-42.73,6.67-8.48,20.64-12.82,33.13-15.08,34-6.17,57,6.64,65.29,40.73,11.16,45.6,20.24,91.74,29.25,137.83C1015.42,1228.07,989.52,1264.59,950.13,1260.34Zm-43.12-187c1.37,21.4,8.78,41.6,12.58,62.54,4.62,25.51,10.26,50.87,16.62,76,3.17,12.53,11.73,16.19,23.49,12.76,10.5-3.07,15.44-11.48,13-22.8-5.07-23.89-10.34-47.74-15.45-71.63-4.48-20.89-8.54-41.89-13.37-62.7-2.5-10.72-9.95-15.55-21.09-13.65C912,1055.77,906.23,1061.94,907,1073.37Z"/><path class="cls-5" d="M1024.06,1189.11c-10.57-27-1-54.72,4.72-81.11,7.74-35.51,14.06-71.31,22.08-106.75,1-4.23,2.57-6.63,7.53-8,33.41-9.32,33.26-9.51,40.23,24.16,8.15,39.41,16.55,78.77,24.67,118.19,1.07,5.2,2.36,8.62,8.62,6,8.38-3.51,11.56.9,12.87,8.51.67,3.9,1.37,8.09,3.3,11.43,3.58,6.18,1.89,10.17-4.14,12.42-9.25,3.45-10,10.32-8.27,18.45.58,2.78,1.28,5.54,1.84,8.33,3.52,17.32,3.51,17.33-13.93,21.15a13.38,13.38,0,0,0-5.46,1.94c-7.74,5.36-13.47,4.61-15.29-6.06-1.16-6.82-3.35-13.51-4.14-20.36-1.24-10.8-7.66-12.13-16.09-9.38-16.16,5.27-33.91,2.64-49.62,11.12C1027.33,1202.18,1020.24,1200.05,1024.06,1189.11Zm44.8-117.55c-1.2,5.92-2.9,10.23-2.8,14.48.46,18.11-5.22,35-9.66,52.16-4.72,18.22-3.2,20.1,15.47,15.91a25.3,25.3,0,0,1,3.61-.71c10.58-.66,12.65-6.79,10.59-16-2.59-11.54-4.32-23.31-7.49-34.69C1075.83,1092.89,1076.49,1081.85,1068.86,1071.56Z"/><path class="cls-2" d="M833.16,473.6c-.4-.76-.79-1.53-1.18-2.29l2.65.54A13,13,0,0,1,833.16,473.6Z"/><path class="cls-2" d="M1215.85,589.2l-3.36-3.5,2.52-3,3.4,4.64Z"/><path class="cls-2" d="M1218.41,587.35c.87,1.23,1.85,2.62-.12,3.51-.46.22-1.61-1.07-2.44-1.66Z"/><path class="cls-6" d="M805.57,1127.52c9.6,24.1,13.75,49.29,19,74.21.78,3.68-.52,4.65-3.92,5.78-8.1,2.7-16.65,2.19-24.92,4-7.41,1.64-4.41-6.28-3.82-9.73C796.22,1177,801,1152.27,805.57,1127.52Z"/><path class="cls-6" d="M907,1073.37c-.8-11.43,4.94-17.6,15.8-19.47,11.14-1.9,18.59,2.93,21.09,13.65,4.83,20.81,8.89,41.81,13.37,62.7,5.11,23.89,10.38,47.74,15.45,71.63,2.4,11.32-2.54,19.73-13,22.8-11.76,3.43-20.32-.23-23.49-12.76-6.36-25.14-12-50.5-16.62-76C915.79,1115,908.38,1094.77,907,1073.37Z"/><path class="cls-6" d="M1068.86,1071.56c7.63,10.29,7,21.33,9.72,31.19,3.17,11.38,4.9,23.15,7.49,34.69,2.06,9.17,0,15.3-10.59,16a25.3,25.3,0,0,0-3.61.71c-18.67,4.19-20.19,2.31-15.47-15.91,4.44-17.11,10.12-34,9.66-52.16C1066,1081.79,1067.66,1077.48,1068.86,1071.56Z"/></svg>